{
    "asset" : {
        "generator" : "Khronos glTF Blender I/O v3.4.50",
        "version" : "2.0"
    },
    "extensionsUsed" : [
        "KHR_texture_transform"
    ],
    "extensionsRequired" : [
        "KHR_texture_transform"
    ],
    "scene" : 0,
    "scenes" : [
        {
            "name" : "Scene",
            "nodes" : [
                0,
                1,
                2,
                3,
                4,
                5,
                6,
                7,
                8,
                9,
                10,
                11,
                12,
                13,
                14,
                15,
                16,
                17,
                18,
                19
            ]
        }
    ],
    "nodes" : [
        {
            "mesh" : 0,
            "name" : "\u7acb\u65b9\u4f53",
            "rotation" : [
                -0.14735695719718933,
                0.14735697209835052,
                -0.691582202911377,
                0.691582202911377
            ],
            "scale" : [
                0.24600940942764282,
                0.21171331405639648,
                0.06091810390353203
            ],
            "translation" : [
                2.3124523162841797,
                1.4245922565460205,
                -0.29753538966178894
            ]
        },
        {
            "mesh" : 1,
            "name" : "\u5186\u67f1.037",
            "scale" : [
                0.19216704368591309,
                0.12826263904571533,
                0.19216704368591309
            ],
            "translation" : [
                0.012083053588867188,
                0.3662096858024597,
                2.987651824951172
            ]
        },
        {
            "mesh" : 0,
            "name" : "\u7acb\u65b9\u4f53.001",
            "rotation" : [
                -0.19727106392383575,
                -0.315262109041214,
                -0.06717361509799957,
                0.9258410334587097
            ],
            "scale" : [
                0.24600942432880402,
                0.21171332895755768,
                0.06091810390353203
            ],
            "translation" : [
                -1.4334580898284912,
                4.876156806945801,
                -3.261873722076416
            ]
        },
        {
            "mesh" : 0,
            "name" : "\u7acb\u65b9\u4f53.002",
            "rotation" : [
                -0.20124246180057526,
                0.2540275752544403,
                0.054126232862472534,
                0.9444796442985535
            ],
            "scale" : [
                0.24600940942764282,
                0.21171332895755768,
                0.060918111354112625
            ],
            "translation" : [
                1.5062429904937744,
                4.868595600128174,
                -3.242799758911133
            ]
        },
        {
            "mesh" : 1,
            "name" : "\u5186\u67f1.001",
            "scale" : [
                0.19216704368591309,
                0.12826263904571533,
                0.19216704368591309
            ],
            "translation" : [
                0.03177209943532944,
                0.3662096858024597,
                2.5741820335388184
            ]
        },
        {
            "mesh" : 1,
            "name" : "\u5186\u67f1.002",
            "scale" : [
                0.19216704368591309,
                0.12826263904571533,
                0.19216704368591309
            ],
            "translation" : [
                0.3993009328842163,
                0.3662096858024597,
                2.7776355743408203
            ]
        },
        {
            "mesh" : 1,
            "name" : "\u5186\u67f1.003",
            "scale" : [
                0.19216704368591309,
                0.12826263904571533,
                0.19216704368591309
            ],
            "translation" : [
                -0.40138691663742065,
                0.3662096858024597,
                2.7776355743408203
            ]
        },
        {
            "mesh" : 1,
            "name" : "\u5186\u67f1.004",
            "scale" : [
                0.19216704368591309,
                0.12826263904571533,
                0.19216704368591309
            ],
            "translation" : [
                0.418989896774292,
                0.3662096858024597,
                3.2567358016967773
            ]
        },
        {
            "mesh" : 1,
            "name" : "\u5186\u67f1.005",
            "scale" : [
                0.19216704368591309,
                0.12826263904571533,
                0.19216704368591309
            ],
            "translation" : [
                -0.4210759997367859,
                0.3662096858024597,
                3.2501726150512695
            ]
        },
        {
            "mesh" : 1,
            "name" : "\u5186\u67f1.006",
            "scale" : [
                0.19216704368591309,
                0.12826263904571533,
                0.19216704368591309
            ],
            "translation" : [
                0.03833502531051636,
                0.3662096858024597,
                3.394558906555176
            ]
        },
        {
            "mesh" : 1,
            "name" : "\u5186\u67f1.007",
            "scale" : [
                0.19216704368591309,
                0.12826263904571533,
                0.19216704368591309
            ],
            "translation" : [
                0.747140645980835,
                0.3662096858024597,
                3.0007781982421875
            ]
        },
        {
            "mesh" : 1,
            "name" : "\u5186\u67f1.008",
            "scale" : [
                0.19216704368591309,
                0.12826263904571533,
                0.19216704368591309
            ],
            "translation" : [
                0.3796118199825287,
                0.3662096858024597,
                3.670205593109131
            ]
        },
        {
            "mesh" : 1,
            "name" : "\u5186\u67f1.009",
            "rotation" : [
                0.16782280802726746,
                0.5149120688438416,
                -0.10358293354511261,
                0.8342491388320923
            ],
            "scale" : [
                0.19216705858707428,
                0.12826263904571533,
                0.1921670287847519
            ],
            "translation" : [
                0.712743878364563,
                0.3823619782924652,
                3.4581961631774902
            ]
        },
        {
            "mesh" : 1,
            "name" : "\u5186\u67f1.010",
            "rotation" : [
                0,
                0,
                -0.8269708156585693,
                0.5622448921203613
            ],
            "scale" : [
                0.19216704368591309,
                0.12826263904571533,
                0.19216704368591309
            ],
            "translation" : [
                -0.7886047959327698,
                0.3662096858024597,
                3.0204672813415527
            ]
        },
        {
            "mesh" : 1,
            "name" : "\u5186\u67f1.011",
            "scale" : [
                0.19216704368591309,
                0.12826263904571533,
                0.19216704368591309
            ],
            "translation" : [
                -0.31606772541999817,
                0.3662096858024597,
                3.670205593109131
            ]
        },
        {
            "mesh" : 1,
            "name" : "\u5186\u67f1.012",
            "rotation" : [
                0.10203108936548233,
                -0.9764872789382935,
                -0.023683995008468628,
                0.1884184032678604
            ],
            "scale" : [
                0.19216704368591309,
                0.12826263904571533,
                0.19216704368591309
            ],
            "translation" : [
                0.03193533048033714,
                0.6983648538589478,
                3.193824291229248
            ]
        },
        {
            "mesh" : 1,
            "name" : "\u5186\u67f1.013",
            "rotation" : [
                -0.039063889533281326,
                -0.9817819595336914,
                0.02572254277765751,
                0.18416455388069153
            ],
            "scale" : [
                0.19216704368591309,
                0.12826265394687653,
                0.1921670287847519
            ],
            "translation" : [
                0.49350857734680176,
                0.6983648538589478,
                3.238705635070801
            ]
        },
        {
            "mesh" : 1,
            "name" : "\u5186\u67f1.014",
            "rotation" : [
                0.005608898587524891,
                -0.9428439140319824,
                -0.1116715520620346,
                0.3139161169528961
            ],
            "scale" : [
                0.1921670287847519,
                0.12826265394687653,
                0.19216705858707428
            ],
            "translation" : [
                -0.44505369663238525,
                0.6983648538589478,
                3.091546058654785
            ]
        },
        {
            "mesh" : 1,
            "name" : "\u5186\u67f1.015",
            "rotation" : [
                -0.007782492786645889,
                -0.9817892909049988,
                0.04123910516500473,
                0.18527959287166595
            ],
            "scale" : [
                0.19216704368591309,
                0.12826263904571533,
                0.19216704368591309
            ],
            "translation" : [
                0.3396259546279907,
                0.6983648538589478,
                2.7914929389953613
            ]
        },
        {
            "mesh" : 1,
            "name" : "\u5186\u67f1.016",
            "rotation" : [
                0.1071600690484047,
                -0.9767945408821106,
                0.020222855731844902,
                0.1843370646238327
            ],
            "scale" : [
                0.1921670287847519,
                0.12826265394687653,
                0.1921670287847519
            ],
            "translation" : [
                -0.14080959558486938,
                0.6983648538589478,
                2.8244709968566895
            ]
        }
    ],
    "materials" : [
        {
            "doubleSided" : true,
            "name" : "\u30de\u30c6\u30ea\u30a2\u30eb",
            "pbrMetallicRoughness" : {
                "metallicFactor" : 0,
                "roughnessFactor" : 0.20000000298023224
            }
        },
        {
            "doubleSided" : true,
            "name" : "\u30de\u30c6\u30ea\u30a2\u30eb.001",
            "pbrMetallicRoughness" : {
                "baseColorTexture" : {
                    "extensions" : {
                        "KHR_texture_transform" : {
                            "offset" : [
                                0.44999998807907104,
                                -0.9500000923871994
                            ],
                            "scale" : [
                                2.0399999618530273,
                                1.9000000953674316
                            ]
                        }
                    },
                    "index" : 0
                },
                "metallicFactor" : 0,
                "roughnessFactor" : 0.5
            }
        },
        {
            "doubleSided" : true,
            "name" : "\u30de\u30c6\u30ea\u30a2\u30eb.039",
            "pbrMetallicRoughness" : {
                "baseColorFactor" : [
                    0.8000000715255737,
                    0.6531352400779724,
                    0.6449484825134277,
                    1
                ],
                "metallicFactor" : 0
            }
        }
    ],
    "meshes" : [
        {
            "name" : "\u7acb\u65b9\u4f53",
            "primitives" : [
                {
                    "attributes" : {
                        "POSITION" : 0,
                        "TEXCOORD_0" : 1,
                        "TEXCOORD_1" : 2,
                        "NORMAL" : 3
                    },
                    "indices" : 4,
                    "material" : 0
                },
                {
                    "attributes" : {
                        "POSITION" : 5,
                        "TEXCOORD_0" : 6,
                        "TEXCOORD_1" : 7,
                        "NORMAL" : 8
                    },
                    "indices" : 9,
                    "material" : 1
                }
            ]
        },
        {
            "name" : "\u5186\u67f1.037",
            "primitives" : [
                {
                    "attributes" : {
                        "POSITION" : 10,
                        "TEXCOORD_0" : 11,
                        "NORMAL" : 12
                    },
                    "indices" : 13,
                    "material" : 2
                }
            ]
        }
    ],
    "textures" : [
        {
            "sampler" : 0,
            "source" : 0
        }
    ],
    "images" : [
        {
            "bufferView" : 10,
            "mimeType" : "image/jpeg",
            "name" : "61t5Gx2xMZL"
        }
    ],
    "accessors" : [
        {
            "bufferView" : 0,
            "componentType" : 5126,
            "count" : 16032,
            "max" : [
                5.690841197967529,
                3.0521726608276367,
                34.42898941040039
            ],
            "min" : [
                -5.690841197967529,
                -25.070693969726562,
                -42.447593688964844
            ],
            "type" : "VEC3"
        },
        {
            "bufferView" : 1,
            "componentType" : 5126,
            "count" : 16032,
            "type" : "VEC2"
        },
        {
            "bufferView" : 2,
            "componentType" : 5126,
            "count" : 16032,
            "type" : "VEC2"
        },
        {
            "bufferView" : 3,
            "componentType" : 5126,
            "count" : 16032,
            "type" : "VEC3"
        },
        {
            "bufferView" : 4,
            "componentType" : 5123,
            "count" : 33672,
            "type" : "SCALAR"
        },
        {
            "bufferView" : 5,
            "componentType" : 5126,
            "count" : 600,
            "max" : [
                5.690841197967529,
                1.565394401550293,
                32.43424606323242
            ],
            "min" : [
                -5.690841197967529,
                -24.438318252563477,
                -41.51615524291992
            ],
            "type" : "VEC3"
        },
        {
            "bufferView" : 6,
            "componentType" : 5126,
            "count" : 600,
            "type" : "VEC2"
        },
        {
            "bufferView" : 7,
            "componentType" : 5126,
            "count" : 600,
            "type" : "VEC2"
        },
        {
            "bufferView" : 8,
            "componentType" : 5126,
            "count" : 600,
            "type" : "VEC3"
        },
        {
            "bufferView" : 9,
            "componentType" : 5123,
            "count" : 900,
            "type" : "SCALAR"
        },
        {
            "bufferView" : 11,
            "componentType" : 5126,
            "count" : 1860,
            "max" : [
                0.9997806549072266,
                1.476028561592102,
                1
            ],
            "min" : [
                -0.9997806549072266,
                -1.476028561592102,
                -1
            ],
            "type" : "VEC3"
        },
        {
            "bufferView" : 12,
            "componentType" : 5126,
            "count" : 1860,
            "type" : "VEC2"
        },
        {
            "bufferView" : 13,
            "componentType" : 5126,
            "count" : 1860,
            "type" : "VEC3"
        },
        {
            "bufferView" : 14,
            "componentType" : 5123,
            "count" : 7998,
            "type" : "SCALAR"
        }
    ],
    "bufferViews" : [
        {
            "buffer" : 0,
            "byteLength" : 192384,
            "byteOffset" : 0,
            "target" : 34962
        },
        {
            "buffer" : 0,
            "byteLength" : 128256,
            "byteOffset" : 192384,
            "target" : 34962
        },
        {
            "buffer" : 0,
            "byteLength" : 128256,
            "byteOffset" : 320640,
            "target" : 34962
        },
        {
            "buffer" : 0,
            "byteLength" : 192384,
            "byteOffset" : 448896,
            "target" : 34962
        },
        {
            "buffer" : 0,
            "byteLength" : 67344,
            "byteOffset" : 641280,
            "target" : 34963
        },
        {
            "buffer" : 0,
            "byteLength" : 7200,
            "byteOffset" : 708624,
            "target" : 34962
        },
        {
            "buffer" : 0,
            "byteLength" : 4800,
            "byteOffset" : 715824,
            "target" : 34962
        },
        {
            "buffer" : 0,
            "byteLength" : 4800,
            "byteOffset" : 720624,
            "target" : 34962
        },
        {
            "buffer" : 0,
            "byteLength" : 7200,
            "byteOffset" : 725424,
            "target" : 34962
        },
        {
            "buffer" : 0,
            "byteLength" : 1800,
            "byteOffset" : 732624,
            "target" : 34963
        },
        {
            "buffer" : 0,
            "byteLength" : 101352,
            "byteOffset" : 734424
        },
        {
            "buffer" : 0,
            "byteLength" : 22320,
            "byteOffset" : 835776,
            "target" : 34962
        },
        {
            "buffer" : 0,
            "byteLength" : 14880,
            "byteOffset" : 858096,
            "target" : 34962
        },
        {
            "buffer" : 0,
            "byteLength" : 22320,
            "byteOffset" : 872976,
            "target" : 34962
        },
        {
            "buffer" : 0,
            "byteLength" : 15996,
            "byteOffset" : 895296,
            "target" : 34963
        }
    ],
    "samplers" : [
        {
            "magFilter" : 9729,
            "minFilter" : 9987
        }
    ],
    "buffers" : [
        {
            "byteLength" : 911292,
            "uri" : "data:application/octet-stream;base64,"
        }
    ]
}
