{
    "asset" : {
        "generator" : "Khronos glTF Blender I/O v3.4.50",
        "version" : "2.0"
    },
    "extensionsUsed" : [
        "KHR_materials_transmission",
        "KHR_materials_ior"
    ],
    "scene" : 0,
    "scenes" : [
        {
            "name" : "Scene",
            "nodes" : [
                0
            ]
        }
    ],
    "nodes" : [
        {
            "mesh" : 0,
            "name" : "\u30c6\u30ad\u30b9\u30c8.004",
            "rotation" : [
                0.7071068286895752,
                0,
                0,
                0.7071068286895752
            ],
            "scale" : [
                0.9740908145904541,
                0.9740908145904541,
                0.9740908145904541
            ],
            "translation" : [
                0.09875845909118652,
                0.0938100814819336,
                0.30723047256469727
            ]
        }
    ],
    "materials" : [
        {
            "doubleSided" : true,
            "extensions" : {
                "KHR_materials_transmission" : {
                    "transmissionFactor" : 0.10000000149011612
                },
                "KHR_materials_ior" : {
                    "ior" : 1.4500000476837158
                }
            },
            "name" : "\u30de\u30c6\u30ea\u30a2\u30eb.004",
            "pbrMetallicRoughness" : {
                "baseColorFactor" : [
                    1,
                    0.8594940900802612,
                    0.19710016250610352,
                    1
                ],
                "roughnessFactor" : 0.25
            }
        }
    ],
    "meshes" : [
        {
            "name" : "\u30c6\u30ad\u30b9\u30c8.004",
            "primitives" : [
                {
                    "attributes" : {
                        "POSITION" : 0,
                        "TEXCOORD_0" : 1,
                        "NORMAL" : 2
                    },
                    "indices" : 3,
                    "material" : 0
                }
            ]
        }
    ],
    "accessors" : [
        {
            "bufferView" : 0,
            "componentType" : 5126,
            "count" : 27724,
            "max" : [
                2.9179418087005615,
                0.07000000029802322,
                0.024085981771349907
            ],
            "min" : [
                -3.99735426902771,
                -0.07000000029802322,
                -0.6274088621139526
            ],
            "type" : "VEC3"
        },
        {
            "bufferView" : 1,
            "componentType" : 5126,
            "count" : 27724,
            "type" : "VEC2"
        },
        {
            "bufferView" : 2,
            "componentType" : 5126,
            "count" : 27724,
            "type" : "VEC3"
        },
        {
            "bufferView" : 3,
            "componentType" : 5123,
            "count" : 77268,
            "type" : "SCALAR"
        }
    ],
    "bufferViews" : [
        {
            "buffer" : 0,
            "byteLength" : 332688,
            "byteOffset" : 0,
            "target" : 34962
        },
        {
            "buffer" : 0,
            "byteLength" : 221792,
            "byteOffset" : 332688,
            "target" : 34962
        },
        {
            "buffer" : 0,
            "byteLength" : 332688,
            "byteOffset" : 554480,
            "target" : 34962
        },
        {
            "buffer" : 0,
            "byteLength" : 154536,
            "byteOffset" : 887168,
            "target" : 34963
        }
    ],
    "buffers" : [
        {
            "byteLength" : 1041704,
            "uri" : "data:application/octet-stream;base64,"
        }
    ]
}
